<?xml version="1.0" encoding="utf-8"?>
<svg xmlns="http://www.w3.org/2000/svg" viewBox="0 0 100 100" width="116.623px" height="104.302px" xmlns:bx="https://boxy-svg.com">
  <defs>
    <bx:export>
      <bx:file format="png" path="icon.png" width="250" height="250" background="#fff0"/>
    </bx:export>
  </defs>
  <g id="_x32_" transform="matrix(0.15136, 0, 0, 0.15136, 28.522148, 24.933083)" style="">
    <g transform="matrix(0.976563, 0, 0, 0.976563, -106.614265, -99.213722)">
      <path class="st0" d="M 512 151.187 L 512 247.473 L 327.933 172.117 C 279.118 209.441 163.874 316.941 76.663 317.806 C 70.927 317.863 73.28 322.035 73.28 322.035 L 149.791 353.366 L 103.899 400.048 L 104.626 473.179 L 54.133 473.179 C 39.251 473.186 25.581 467.082 15.855 457.323 C 6.096 447.597 -0.008 433.928 0 419.046 L 0 92.954 C -0.008 78.072 6.096 64.403 15.855 54.677 C 25.581 44.917 39.251 38.813 54.133 38.821 L 124.533 38.821 C 138.285 38.821 151.517 44.059 161.557 53.464 L 204.627 93.854 L 204.611 93.828 C 206.83 95.916 209.75 97.063 212.761 97.063 L 457.867 97.063 C 472.749 97.054 486.41 103.151 496.145 112.909 C 505.904 122.636 512.008 136.305 512 151.187 Z M 512 419.046 C 512.008 433.928 505.904 447.597 496.145 457.323 C 486.419 467.083 472.749 473.187 457.867 473.179 L 455.847 473.179 L 512 416.047 Z" style="fill: rgb(75, 75, 75);"/>
    </g>
  </g>
  <g id="svg-2" style="" transform="matrix(0.137803, 0, 0, 0.137803, 18.474459, 40.325317)">
    <g transform="matrix(0.976563, 0, 0, 0.976563, 53.792908, -69.363266)">
      <path class="st0" d="M260.847,51.057C210.844,88.23,92.606,195.549,3.954,195.549c-5.836,0-3.486,4.232-3.486,4.232l77.458,32.376 l-47.118,46.646v77.175l251.153,104.964L512,233.189v-77.168L260.847,51.057z M68.485,204.425 c26.6-9.94,53.389-24.653,79.054-41.188c6.421-4.135,12.738-8.416,18.994-12.73c1.375-0.951,2.741-1.886,4.103-2.846 c6.063-4.232,12.036-8.506,17.889-12.802c0.681-0.499,1.335-0.991,2.016-1.491c5.68-4.192,11.234-8.377,16.676-12.528 c0.734-0.565,1.467-1.113,2.193-1.677c6.01-4.612,11.843-9.142,17.502-13.592l204.576,85.503 c-53.933,41.067-123.229,87.479-176.38,87.479c-3.797,0-7.498-0.25-11.012-0.75l-127.332-53.208l-21.933-9.158L68.485,204.425z M99.885,241.315L238.04,299.07c5.55,0.976,11.23,1.443,17.067,1.443c55.598,0,122.83-42.211,177.573-82.842L275.596,373.182 L58.384,282.415L99.885,241.315z M490.04,224.031L276.906,435.033l-224.138-93.67v-18.252l225.561,94.258L490.04,207.771V224.031z M490.04,194.783L276.209,406.486l-223.44-93.372v-19.445l225.71,94.323L490.04,178.546V194.783z" style="fill: rgb(75, 75, 75);"/>
      <path class="st0" d="M209.417,233.947c0.802,0.395,1.878,0.274,2.689-0.314l20.4-9.158c2.326-1.04,4.539-2.33,6.602-3.813 l65.672-47.532c0.806-0.589,0.81-1.242,0.008-1.644l-14.983-7.433c-0.939-0.468-2.012-0.678-3.217-0.612l-26.29,0.418 c-1.201,0.057-2.007,0.314-2.818,0.903l-16.7,12.085c-1.076,0.782-0.677,1.298,0.661,1.314l24.415-0.04l0.262,0.129l-46.065,33.344 l-26.68,12.746c-0.81,0.58-0.81,1.241-0.008,1.636L209.417,233.947z" style="fill: rgb(75, 75, 75);"/>
    </g>
  </g>
</svg>